<svg xmlns="http://www.w3.org/2000/svg" xmlns:xlink="http://www.w3.org/1999/xlink" version="1.1" width="256" height="256" viewBox="0 0 256 256" xml:space="preserve">

<defs>
</defs>
<g style="stroke: none; stroke-width: 0; stroke-dasharray: none; stroke-linecap: butt; stroke-linejoin: miter; stroke-miterlimit: 10; fill: none; fill-rule: nonzero; opacity: 1;" transform="translate(1.4065934065934016 1.4065934065934016) scale(2.81 2.81)" >
	<path d="M 16.569 89.999 c -1.059 0 -2.123 -0.252 -3.101 -0.764 c -2.215 -1.158 -3.591 -3.43 -3.591 -5.929 V 9.247 c 0 -5.099 4.149 -9.248 9.248 -9.248 h 51.751 c 5.1 0 9.248 4.149 9.248 9.248 v 74.06 c 0 2.499 -1.376 4.771 -3.592 5.929 c -2.214 1.156 -4.865 0.99 -6.918 -0.437 L 46.363 72.63 c -0.814 -0.568 -1.911 -0.567 -2.726 -0.001 L 20.386 88.799 C 19.24 89.596 17.908 89.999 16.569 89.999 z M 74.182 82.23 h 0.01 H 74.182 z M 19.124 7.999 c -0.688 0 -1.248 0.56 -1.248 1.248 V 80.8 l 21.192 -14.738 c 3.547 -2.468 8.315 -2.467 11.863 0.001 L 72.124 80.8 V 9.247 c 0 -0.688 -0.56 -1.248 -1.248 -1.248 H 19.124 z" style="stroke: none; stroke-width: 1; stroke-dasharray: none; stroke-linecap: butt; stroke-linejoin: miter; stroke-miterlimit: 10; fill: rgb(0,0,0); fill-rule: nonzero; opacity: 1;" transform=" matrix(1 0 0 1 0 0) " stroke-linecap="round" />
	<path d="M 46.212 21.226 l 3.589 7.271 c 0.197 0.399 0.577 0.675 1.017 0.739 l 8.024 1.166 c 1.108 0.161 1.551 1.523 0.749 2.305 l -5.807 5.66 c -0.318 0.31 -0.464 0.758 -0.389 1.196 l 1.371 7.992 c 0.189 1.104 -0.969 1.945 -1.96 1.424 l -7.177 -3.773 c -0.394 -0.207 -0.864 -0.207 -1.257 0 l -7.177 3.773 c -0.991 0.521 -2.15 -0.321 -1.96 -1.424 l 1.371 -7.992 c 0.075 -0.438 -0.07 -0.886 -0.389 -1.196 l -5.807 -5.66 c -0.802 -0.782 -0.359 -2.144 0.749 -2.305 l 8.024 -1.166 c 0.44 -0.064 0.82 -0.34 1.017 -0.739 l 3.589 -7.271 C 44.284 20.221 45.716 20.221 46.212 21.226 z" style="stroke: none; stroke-width: 1; stroke-dasharray: none; stroke-linecap: butt; stroke-linejoin: miter; stroke-miterlimit: 10; fill: rgb(0,0,0); fill-rule: nonzero; opacity: 1;" transform=" matrix(1 0 0 1 0 0) " stroke-linecap="round" />
	<path d="M 36.563 50.137 c -0.485 0 -0.967 -0.152 -1.379 -0.452 c -0.73 -0.529 -1.088 -1.41 -0.935 -2.299 l 1.37 -7.992 c 0.02 -0.114 -0.018 -0.23 -0.101 -0.311 l -5.806 -5.659 c -0.646 -0.629 -0.874 -1.553 -0.595 -2.41 c 0.279 -0.857 1.006 -1.471 1.898 -1.601 l 8.025 -1.166 c 0.114 -0.017 0.213 -0.088 0.264 -0.192 l 3.589 -7.271 c 0.398 -0.809 1.206 -1.311 2.107 -1.311 h 0 c 0.901 0 1.709 0.502 2.108 1.311 v 0 l 3.588 7.272 c 0.051 0.103 0.15 0.175 0.265 0.191 l 8.025 1.166 c 0.893 0.13 1.62 0.743 1.898 1.6 c 0.278 0.857 0.051 1.781 -0.595 2.41 l -5.807 5.66 c -0.083 0.081 -0.121 0.197 -0.102 0.31 l 1.371 7.993 c 0.152 0.89 -0.207 1.771 -0.937 2.3 c -0.73 0.529 -1.677 0.598 -2.476 0.178 l -7.176 -3.773 c -0.103 -0.055 -0.225 -0.055 -0.327 0 l -7.177 3.773 C 37.312 50.046 36.937 50.137 36.563 50.137 z M 45 21.472 c -0.082 0 -0.23 0.025 -0.314 0.196 l -3.589 7.272 c -0.342 0.694 -1.004 1.175 -1.77 1.286 l -8.025 1.166 c -0.188 0.027 -0.258 0.162 -0.283 0.239 c -0.025 0.078 -0.047 0.228 0.089 0.36 l 5.807 5.66 c 0.554 0.541 0.807 1.319 0.676 2.082 l -1.37 7.992 c -0.032 0.188 0.073 0.295 0.139 0.343 c 0.066 0.049 0.203 0.115 0.37 0.027 l 7.177 -3.774 c 0.685 -0.36 1.503 -0.36 2.189 0 l 7.177 3.774 c 0.168 0.088 0.304 0.021 0.369 -0.026 c 0.066 -0.049 0.172 -0.157 0.141 -0.345 l -1.371 -7.991 c -0.131 -0.762 0.122 -1.54 0.676 -2.081 l 5.807 -5.66 c 0.136 -0.132 0.114 -0.282 0.089 -0.36 c -0.025 -0.078 -0.096 -0.211 -0.283 -0.239 l -8.025 -1.166 c -0.766 -0.111 -1.427 -0.591 -1.771 -1.285 l -3.588 -7.273 C 45.231 21.498 45.082 21.472 45 21.472 z" style="stroke: none; stroke-width: 1; stroke-dasharray: none; stroke-linecap: butt; stroke-linejoin: miter; stroke-miterlimit: 10; fill: rgb(0,0,0); fill-rule: nonzero; opacity: 1;" transform=" matrix(1 0 0 1 0 0) " stroke-linecap="round" />
</g>
</svg>